# xmcd
#
# Track frame offsets:
#	150
#	12202
#	24220
#	40405
#	53660
#	69015
#	82525
#	97062
#	112192
#	125255
#	141225
#	154370
#	169305
#	182642
#	195087
#	209495
#
# Disc length: 2987 seconds
#
# Revision: 4
# Processed by: cddbd v1.5.2PL0 Copyright (c) Steve Scherf et al.
# Submitted via: audiograbber 1.83.01
#
DISCID=cc0ba910
DTITLE=Tom Astor - Hallo Trucker
DYEAR=1991
DGENRE=Country
TTITLE0=Hallo, Guten Morgen Deutschland (Version 1990)
TTITLE1=Gute Fahrt Auf Allen Straßen
TTITLE2=Junger Adler (Ein Lied Für (M)einen Sohn)
TTITLE3=Partner Fahr Rechts
TTITLE4=Es Kommt Sowieso Niemals So
TTITLE5=Der Kleine Trucker
TTITLE6=Hey Darling (Deinen Höhenflug, Den Halt' Ich Nicht Mehr Aus)
TTITLE7=Halt Abstand Junge
TTITLE8=Nutz Die Zeit (Alter Junge Nutz Die Zeit)
TTITLE9=Schreib Mir Mal Aus Mexico
TTITLE10=Ich Bin Einer So Wie Du
TTITLE11=Sonntagmorgen
TTITLE12=Redneck Riviera (Duett Mit The Bellamy Brothers)
TTITLE13=Jeden Montag Freu'n Wir Uns Auf's Wochenend
TTITLE14=Ich Trink Mein Bier Gern Aus Der Flasche (Halfway House)
TTITLE15=Und Nachts Wenn Alles Schlief
EXTD=EMI Electrola GmbH Art.Nr. 7965322 EAN/UPC 0-77779-65322--5
EXTT0=
EXTT1=
EXTT2=
EXTT3=
EXTT4=
EXTT5=
EXTT6=
EXTT7=
EXTT8=
EXTT9=
EXTT10=
EXTT11=
EXTT12=
EXTT13=
EXTT14=
EXTT15=
PLAYORDER=
